<svg xmlns="http://www.w3.org/2000/svg" viewBox="0 0 668 624" preserveAspectRatio="xMidYMid meet">
  <g transform="translate(0,624) scale(0.1,-0.1)" fill="#000000">
    <path d="M1600 5489 c-295 -20 -493 -104 -623 -264 -86 -106 -120 -198 -154
    -415 -17 -107 -18 -225 -18 -1710 0 -1714 0 -1704 52 -1899 37 -142 72 -202
    177 -307 78 -78 103 -96 176 -128 178 -80 130 -77 1355 -87 1485 -12 2527 -6
    2660 15 121 19 195 41 297 90 62 30 90 52 153 119 111 120 167 249 195 452 16
    111 26 3130 12 3345 -12 172 -28 253 -71 358 -37 92 -70 147 -123 203 -133
    141 -304 207 -593 228 -164 13 -3315 13 -3495 0z m3575 -508 c83 -16 107 -27
    144 -65 63 -65 64 -75 68 -1148 4 -936 3 -958 -16 -1000 -22 -49 -79 -107
    -131 -134 -32 -17 -70 -20 -410 -25 -340 -5 -381 -7 -435 -26 -212 -71 -287
    -176 -420 -587 -26 -80 -32 -90 -62 -102 -26 -11 -139 -14 -577 -14 -299 0
    -552 3 -560 6 -18 7 -30 32 -76 159 -110 307 -125 339 -192 411 -52 56 -118
    97 -198 122 -59 19 -98 21 -415 25 -192 3 -363 8 -380 11 -16 4 -41 9 -54 12
    -39 9 -129 102 -144 148 -15 51 -12 1791 4 1954 20 208 53 238 291 261 138 14
    3492 6 3563 -8z m-3743 -2851 c40 -5 217 -11 392 -14 292 -3 321 -5 332 -21 7
    -10 30 -68 50 -129 19 -61 44 -130 55 -153 10 -24 19 -46 19 -49 0 -4 19 -45
    42 -93 66 -136 154 -211 300 -254 71 -21 87 -21 723 -21 643 -1 651 0 729 22
    207 58 298 180 426 572 l37 115 319 7 c287 6 400 13 502 34 l32 6 1 -73 c4
    -648 -5 -760 -67 -829 -35 -38 -72 -54 -172 -71 -67 -12 -3337 -20 -3504 -8
    -177 11 -250 38 -294 105 -30 45 -44 190 -51 520 -3 177 -3 330 1 339 4 12 13
    15 30 11 14 -3 57 -10 98 -16z"/>
    <path d="M3100 3980 c0 -461 -2 -540 -14 -540 -8 0 -53 38 -100 85 -46 47 -89
    85 -95 85 -22 0 -331 -326 -331 -350 0 -8 22 -35 49 -60 82 -76 319 -299 441
    -415 64 -60 158 -150 208 -198 l93 -88 68 68 c37 37 125 122 196 188 70 66
    151 143 180 170 116 111 204 194 273 254 39 35 72 71 72 79 0 11 -135 163
    -301 336 l-27 29 -91 -88 c-60 -58 -96 -85 -106 -81 -13 5 -15 69 -15 536 l0
    530 -250 0 -250 0 0 -540z"/>
  </g>
</svg>
