<svg width="20" height="20" viewBox="0 0 20 20" fill="none" xmlns="http://www.w3.org/2000/svg">
<path d="M10 16.6667C10.3889 16.6667 10.7174 16.5322 10.9856 16.2633C11.2544 15.9952 11.3889 15.6667 11.3889 15.2778C11.3889 14.8889 11.2544 14.5604 10.9856 14.2922C10.7174 14.0233 10.3889 13.8889 10 13.8889C9.61111 13.8889 9.28259 14.0233 9.01444 14.2922C8.74556 14.5604 8.61111 14.8889 8.61111 15.2778C8.61111 15.6667 8.74556 15.9952 9.01444 16.2633C9.28259 16.5322 9.61111 16.6667 10 16.6667ZM9 12.3889H11.0556C11.0556 11.7222 11.1296 11.2315 11.2778 10.9167C11.4259 10.6019 11.7407 10.2037 12.2222 9.72222C12.8704 9.07407 13.3289 8.53222 13.5978 8.09667C13.8659 7.66185 14 7.16667 14 6.61111C14 5.62963 13.6667 4.83778 13 4.23556C12.3333 3.63407 11.4352 3.33333 10.3056 3.33333C9.28704 3.33333 8.42148 3.58333 7.70889 4.08333C6.99556 4.58333 6.5 5.27778 6.22222 6.16667L8.05556 6.88889C8.18519 6.38889 8.44444 5.98593 8.83333 5.68C9.22222 5.37482 9.67593 5.22222 10.1944 5.22222C10.6944 5.22222 11.1111 5.3563 11.4444 5.62445C11.7778 5.89333 11.9444 6.25 11.9444 6.69444C11.9444 7.00926 11.8426 7.34259 11.6389 7.69445C11.4352 8.0463 11.0926 8.43519 10.6111 8.86111C10 9.39815 9.57889 9.91185 9.34778 10.4022C9.11593 10.8933 9 11.5556 9 12.3889ZM2.22222 20C1.61111 20 1.08778 19.7826 0.652222 19.3478C0.217407 18.9122 0 18.3889 0 17.7778V2.22222C0 1.61111 0.217407 1.08778 0.652222 0.652222C1.08778 0.217407 1.61111 0 2.22222 0H17.7778C18.3889 0 18.9122 0.217407 19.3478 0.652222C19.7826 1.08778 20 1.61111 20 2.22222V17.7778C20 18.3889 19.7826 18.9122 19.3478 19.3478C18.9122 19.7826 18.3889 20 17.7778 20H2.22222ZM2.22222 17.7778H17.7778V2.22222H2.22222V17.7778Z" fill="#B5B7CB"/>
</svg>
