<svg xmlns="http://www.w3.org/2000/svg" viewBox="0 0 740 692" preserveAspectRatio="xMidYMid meet">
  <g transform="translate(0,692) scale(0.1,-0.1)" fill="#000000">
    <path d="M2840 6053 c-489 -35 -674 -101 -868 -308 -166 -176 -232 -366 -264
-755 -17 -207 -16 -2498 1 -2803 17 -313 51 -480 129 -632 64 -126 134 -209
244 -288 174 -124 349 -175 683 -197 245 -16 1278 -23 1620 -11 445 15 613 42
790 126 144 69 206 121 328 275 27 34 96 180 117 245 61 199 79 471 80 1188
l0 407 -244 0 -244 0 -5 -592 c-3 -348 -10 -627 -16 -676 -43 -320 -145 -423
-466 -469 -89 -12 -258 -16 -881 -20 -1218 -8 -1368 8 -1518 163 -62 64 -94
158 -118 344 -19 155 -19 2858 1 3010 45 351 138 448 471 490 47 6 237 14 423
17 l337 6 0 243 0 244 -277 -2 c-153 -1 -298 -3 -323 -5z"/>
<path d="M5122 6047 c-40 -12 -129 -90 -145 -126 -7 -17 -13 -132 -17 -316
l-5 -290 -285 -5 c-318 -6 -330 -8 -391 -78 -68 -78 -87 -178 -50 -264 26 -59
95 -126 145 -139 25 -7 148 -12 311 -13 l270 -1 5 -290 c6 -326 4 -320 83
-392 79 -73 185 -85 286 -33 46 23 96 85 110 136 7 24 11 144 11 305 0 234 2
268 16 273 9 3 128 6 264 6 137 0 271 5 297 10 56 12 136 80 159 136 21 49 18
150 -7 203 -23 51 -87 115 -127 126 -15 4 -155 11 -312 14 l-285 6 0 275 0
275 -30 59 c-16 32 -45 71 -63 86 -56 46 -162 62 -240 37z"/>
<path d="M2955 4551 c-131 -9 -178 -36 -223 -126 -63 -124 -21 -258 103 -330
l43 -25 578 2 579 3 44 30 c70 48 101 93 113 167 11 59 9 71 -12 127 -25 67
-58 102 -130 135 -44 20 -61 21 -525 22 -264 1 -520 -2 -570 -5z"/>
<path d="M2840 3527 c-24 -12 -61 -43 -82 -69 -48 -56 -70 -149 -50 -215 16
-55 64 -117 114 -150 l42 -28 813 -3 c563 -2 827 1 855 8 51 14 130 95 154
156 43 114 -15 250 -131 305 -38 18 -79 19 -856 19 l-816 0 -43 -23z"/>
<path d="M2905 2545 c-5 -2 -23 -6 -39 -10 -16 -3 -54 -31 -86 -64 -49 -49
-60 -66 -71 -115 -23 -102 20 -200 115 -263 l48 -33 577 0 578 0 46 31 c119
78 155 182 106 302 -19 45 -46 78 -95 117 -6 5 -35 16 -65 24 -45 14 -127 16
-578 15 -289 0 -530 -2 -536 -4z"/>
  </g>
</svg>
