<svg width="20" height="20" viewBox="0 0 20 20" fill="none" xmlns="http://www.w3.org/2000/svg">
<path d="M9 20V17.7778H17V9.88889C17 8.81481 16.8167 7.80556 16.45 6.86111C16.0833 5.91667 15.5833 5.09259 14.95 4.38889C14.3167 3.68519 13.575 3.12963 12.725 2.72222C11.875 2.31481 10.9667 2.11111 10 2.11111C9.03333 2.11111 8.125 2.31481 7.275 2.72222C6.425 3.12963 5.68333 3.68519 5.05 4.38889C4.41667 5.09259 3.91667 5.91667 3.55 6.86111C3.18333 7.80556 3 8.81481 3 9.88889V16.6667H2C1.45 16.6667 0.979333 16.4493 0.588 16.0144C0.196 15.5789 0 15.0556 0 14.4444V12.2222C0 11.7963 0.0916668 11.4211 0.275 11.0967C0.458333 10.773 0.7 10.5093 1 10.3056L1.075 8.83333C1.225 7.48148 1.571 6.25926 2.113 5.16667C2.65433 4.07407 3.32933 3.14815 4.138 2.38889C4.946 1.62963 5.85433 1.04148 6.863 0.624445C7.871 0.208148 8.91667 0 10 0C11.1 0 12.1543 0.208148 13.163 0.624445C14.171 1.04148 15.075 1.63407 15.875 2.40222C16.675 3.17111 17.346 4.09704 17.888 5.18C18.4293 6.2637 18.775 7.47222 18.925 8.80556L19 10.25C19.3 10.4167 19.5417 10.6619 19.725 10.9856C19.9083 11.31 20 11.6667 20 12.0556V14.6111C20 15.0185 19.9083 15.3796 19.725 15.6944C19.5417 16.0093 19.3 16.25 19 16.4167V17.7778C19 18.3889 18.8043 18.9122 18.413 19.3478C18.021 19.7826 17.55 20 17 20H9ZM7 12.2222C6.71667 12.2222 6.47933 12.1156 6.288 11.9022C6.096 11.6896 6 11.4259 6 11.1111C6 10.7963 6.096 10.5322 6.288 10.3189C6.47933 10.1063 6.71667 10 7 10C7.28333 10 7.521 10.1063 7.713 10.3189C7.90433 10.5322 8 10.7963 8 11.1111C8 11.4259 7.90433 11.6896 7.713 11.9022C7.521 12.1156 7.28333 12.2222 7 12.2222ZM13 12.2222C12.7167 12.2222 12.4793 12.1156 12.288 11.9022C12.096 11.6896 12 11.4259 12 11.1111C12 10.7963 12.096 10.5322 12.288 10.3189C12.4793 10.1063 12.7167 10 13 10C13.2833 10 13.521 10.1063 13.713 10.3189C13.9043 10.5322 14 10.7963 14 11.1111C14 11.4259 13.9043 11.6896 13.713 11.9022C13.521 12.1156 13.2833 12.2222 13 12.2222ZM4.025 10.5C3.95833 9.40741 4.096 8.41667 4.438 7.52778C4.77933 6.63889 5.23733 5.88407 5.812 5.26333C6.38733 4.64333 7.05 4.16667 7.8 3.83333C8.55 3.5 9.3 3.33333 10.05 3.33333C11.5667 3.33333 12.8793 3.86593 13.988 4.93111C15.096 5.99556 15.7667 7.32407 16 8.91667C14.4333 8.89815 13.0167 8.43037 11.75 7.51333C10.4833 6.59704 9.525 5.40741 8.875 3.94444C8.60833 5.44444 8.046 6.77296 7.188 7.93C6.32933 9.08778 5.275 9.94444 4.025 10.5Z" fill="#B5B7CB"/>
</svg>
