<svg width="200" height="42" viewBox="0 0 200 42" fill="none" xmlns="http://www.w3.org/2000/svg">
<path d="M20.3528 35L28.5248 9.08H34.8788L43.0508 35H38.5868L31.1708 11.744H32.1428L24.8168 35H20.3528ZM24.9068 29.384V25.334H38.5148V29.384H24.9068ZM59.7512 35V25.64C59.7512 25.028 59.7092 24.35 59.6252 23.606C59.5412 22.862 59.3432 22.148 59.0312 21.464C58.7312 20.768 58.2752 20.198 57.6632 19.754C57.0632 19.31 56.2472 19.088 55.2152 19.088C54.6632 19.088 54.1172 19.178 53.5772 19.358C53.0372 19.538 52.5452 19.85 52.1012 20.294C51.6692 20.726 51.3212 21.326 51.0572 22.094C50.7932 22.85 50.6612 23.822 50.6612 25.01L48.0872 23.912C48.0872 22.256 48.4052 20.756 49.0412 19.412C49.6892 18.068 50.6372 17 51.8852 16.208C53.1332 15.404 54.6692 15.002 56.4932 15.002C57.9332 15.002 59.1212 15.242 60.0572 15.722C60.9932 16.202 61.7372 16.814 62.2892 17.558C62.8412 18.302 63.2492 19.094 63.5132 19.934C63.7772 20.774 63.9452 21.572 64.0172 22.328C64.1012 23.072 64.1432 23.678 64.1432 24.146V35H59.7512ZM46.2692 35V15.56H50.1392V21.59H50.6612V35H46.2692ZM77.3619 35.54C75.3939 35.54 73.6659 35.114 72.1779 34.262C70.6899 33.41 69.5259 32.228 68.6859 30.716C67.8579 29.204 67.4439 27.464 67.4439 25.496C67.4439 23.372 67.8519 21.53 68.6679 19.97C69.4839 18.398 70.6179 17.18 72.0699 16.316C73.5219 15.452 75.2019 15.02 77.1099 15.02C79.1259 15.02 80.8359 15.494 82.2399 16.442C83.6559 17.378 84.7059 18.704 85.3899 20.42C86.0739 22.136 86.3319 24.158 86.1639 26.486H81.8619V24.902C81.8499 22.79 81.4779 21.248 80.7459 20.276C80.0139 19.304 78.8619 18.818 77.2899 18.818C75.5139 18.818 74.1939 19.37 73.3299 20.474C72.4659 21.566 72.0339 23.168 72.0339 25.28C72.0339 27.248 72.4659 28.772 73.3299 29.852C74.1939 30.932 75.4539 31.472 77.1099 31.472C78.1779 31.472 79.0959 31.238 79.8639 30.77C80.6439 30.29 81.2439 29.6 81.6639 28.7L85.9479 29.996C85.2039 31.748 84.0519 33.11 82.4919 34.082C80.9439 35.054 79.2339 35.54 77.3619 35.54ZM70.6659 26.486V23.21H84.0399V26.486H70.6659ZM101.142 35.54C98.5502 35.54 96.3302 34.976 94.4822 33.848C92.6342 32.708 91.2122 31.124 90.2162 29.096C89.2322 27.068 88.7402 24.716 88.7402 22.04C88.7402 19.364 89.2322 17.012 90.2162 14.984C91.2122 12.956 92.6342 11.378 94.4822 10.25C96.3302 9.11 98.5502 8.54 101.142 8.54C104.13 8.54 106.62 9.29 108.612 10.79C110.604 12.278 112.002 14.288 112.806 16.82L108.432 18.026C107.928 16.334 107.07 15.014 105.858 14.066C104.646 13.106 103.074 12.626 101.142 12.626C99.4022 12.626 97.9502 13.016 96.7862 13.796C95.6342 14.576 94.7642 15.674 94.1762 17.09C93.6002 18.494 93.3062 20.144 93.2942 22.04C93.2942 23.936 93.5822 25.592 94.1582 27.008C94.7462 28.412 95.6222 29.504 96.7862 30.284C97.9502 31.064 99.4022 31.454 101.142 31.454C103.074 31.454 104.646 30.974 105.858 30.014C107.07 29.054 107.928 27.734 108.432 26.054L112.806 27.26C112.002 29.792 110.604 31.808 108.612 33.308C106.62 34.796 104.13 35.54 101.142 35.54ZM125.344 35.54C123.4 35.54 121.702 35.102 120.25 34.226C118.798 33.35 117.67 32.144 116.866 30.608C116.074 29.06 115.678 27.284 115.678 25.28C115.678 23.24 116.086 21.452 116.902 19.916C117.718 18.38 118.852 17.18 120.304 16.316C121.756 15.452 123.436 15.02 125.344 15.02C127.3 15.02 129.004 15.458 130.456 16.334C131.908 17.21 133.036 18.422 133.84 19.97C134.644 21.506 135.046 23.276 135.046 25.28C135.046 27.296 134.638 29.078 133.822 30.626C133.018 32.162 131.89 33.368 130.438 34.244C128.986 35.108 127.288 35.54 125.344 35.54ZM125.344 31.472C127.072 31.472 128.356 30.896 129.196 29.744C130.036 28.592 130.456 27.104 130.456 25.28C130.456 23.396 130.03 21.896 129.178 20.78C128.326 19.652 127.048 19.088 125.344 19.088C124.18 19.088 123.22 19.352 122.464 19.88C121.72 20.396 121.168 21.122 120.808 22.058C120.448 22.982 120.268 24.056 120.268 25.28C120.268 27.164 120.694 28.67 121.546 29.798C122.41 30.914 123.676 31.472 125.344 31.472ZM146.806 35.54C145.018 35.54 143.458 35.09 142.126 34.19C140.794 33.29 139.762 32.066 139.03 30.518C138.298 28.97 137.932 27.224 137.932 25.28C137.932 23.312 138.298 21.56 139.03 20.024C139.774 18.476 140.824 17.258 142.18 16.37C143.536 15.47 145.132 15.02 146.968 15.02C148.816 15.02 150.364 15.47 151.612 16.37C152.872 17.258 153.826 18.476 154.474 20.024C155.122 21.572 155.446 23.324 155.446 25.28C155.446 27.212 155.122 28.958 154.474 30.518C153.826 32.066 152.86 33.29 151.576 34.19C150.292 35.09 148.702 35.54 146.806 35.54ZM147.472 31.652C148.636 31.652 149.572 31.388 150.28 30.86C151 30.32 151.522 29.57 151.846 28.61C152.182 27.65 152.35 26.54 152.35 25.28C152.35 24.008 152.182 22.898 151.846 21.95C151.522 20.99 151.012 20.246 150.316 19.718C149.62 19.178 148.72 18.908 147.616 18.908C146.452 18.908 145.492 19.196 144.736 19.772C143.98 20.336 143.422 21.104 143.062 22.076C142.702 23.036 142.522 24.104 142.522 25.28C142.522 26.468 142.696 27.548 143.044 28.52C143.404 29.48 143.95 30.242 144.682 30.806C145.414 31.37 146.344 31.652 147.472 31.652ZM152.35 35V21.356H151.81V9.08H156.184V35H152.35ZM170.069 35.54C168.101 35.54 166.373 35.114 164.885 34.262C163.397 33.41 162.233 32.228 161.393 30.716C160.565 29.204 160.151 27.464 160.151 25.496C160.151 23.372 160.559 21.53 161.375 19.97C162.191 18.398 163.325 17.18 164.777 16.316C166.229 15.452 167.909 15.02 169.817 15.02C171.833 15.02 173.543 15.494 174.947 16.442C176.363 17.378 177.413 18.704 178.097 20.42C178.781 22.136 179.039 24.158 178.871 26.486H174.569V24.902C174.557 22.79 174.185 21.248 173.453 20.276C172.721 19.304 171.569 18.818 169.997 18.818C168.221 18.818 166.901 19.37 166.037 20.474C165.173 21.566 164.741 23.168 164.741 25.28C164.741 27.248 165.173 28.772 166.037 29.852C166.901 30.932 168.161 31.472 169.817 31.472C170.885 31.472 171.803 31.238 172.571 30.77C173.351 30.29 173.951 29.6 174.371 28.7L178.655 29.996C177.911 31.748 176.759 33.11 175.199 34.082C173.651 35.054 171.941 35.54 170.069 35.54ZM163.373 26.486V23.21H176.747V26.486H163.373Z" fill="url(#paint0_linear_51_89)"/>
<defs>
<linearGradient id="paint0_linear_51_89" x1="0" y1="21" x2="200" y2="21" gradientUnits="userSpaceOnUse">
<stop offset="0.396287" stop-color="#5367AD"/>
<stop offset="0.687136" stop-color="#B5B7CB"/>
</linearGradient>
</defs>
</svg>
